<?xml version="1.0" standalone="no"?>
<!DOCTYPE svg PUBLIC "-//W3C//DTD SVG 20010904//EN"
 "http://www.w3.org/TR/2001/REC-SVG-20010904/DTD/svg10.dtd">
<svg version="1.0" xmlns="http://www.w3.org/2000/svg"
 width="7730.000000pt" height="7730.000000pt" viewBox="0 0 7730.000000 7730.000000"
 preserveAspectRatio="xMidYMid meet">

<g transform="translate(0.000000,7730.000000) scale(0.100000,-0.100000)"
fill="#000000" stroke="none">
<path d="M35070 67693 c-639 -109 -4409 -746 -5500 -929 l-405 -68 -3 -146
c-2 -80 -14 -552 -27 -1049 -15 -575 -21 -909 -15 -916 10 -11 -5 -661 -79
-3580 -15 -605 -27 -1101 -27 -1102 2 -3 3058 -34 3061 -31 4 4 55 1897 55
2031 0 48 4 87 8 87 7 0 3938 -3373 3992 -3426 l25 -24 -5520 1 c-5110 0
-5518 1 -5495 16 14 9 55 46 91 83 112 112 156 233 147 407 -8 151 -71 284
-174 368 -38 31 -7084 3955 -7274 4050 -166 84 -328 70 -735 -63 -1138 -373
-3612 -1570 -6835 -3307 -206 -111 -433 -233 -504 -271 -193 -104 -287 -201
-335 -347 -61 -186 -16 -405 111 -537 24 -25 536 -403 1138 -840 602 -436
1128 -818 1168 -848 l72 -53 -24 -32 c-232 -309 -403 -1503 -433 -3027 l-6
-335 -52 -95 c-406 -745 -772 -1600 -999 -2337 -462 -1500 -493 -2737 -90
-3657 25 -59 49 -106 53 -106 17 1 417 586 608 890 764 1216 1173 2238 1173
2932 0 160 -7 202 -126 773 -58 275 -150 723 -205 995 -113 556 -108 508 -84
890 95 1475 217 2533 336 2900 26 80 31 85 52 62 15 -16 22 -144 62 -1063 44
-1000 47 -1046 68 -1094 30 -68 172 -279 265 -395 104 -129 333 -361 469 -478
l113 -95 0 -12209 0 -12208 -387 0 c-418 -1 -487 -7 -601 -53 -102 -41 -172
-87 -258 -172 -127 -125 -194 -262 -215 -438 -7 -58 -9 -255 -7 -537 5 -487 5
-493 69 -629 31 -68 102 -172 141 -208 l24 -22 98 171 c396 684 879 1357 1400
1948 l145 165 1 11948 c0 6571 2 11947 4 11947 2 0 55 -30 117 -66 168 -98
462 -241 644 -313 625 -246 1236 -381 2040 -452 198 -17 979 -23 1212 -10
1131 66 2150 363 3078 895 766 440 1480 1062 2041 1781 183 234 344 468 454
663 l53 93 -10 97 c-6 53 -9 99 -6 102 4 5 13375 141 13380 137 1 -2 -18 -55
-43 -117 -341 -866 -545 -1802 -604 -2770 -15 -252 -12 -827 5 -1077 41 -580
119 -1080 250 -1602 448 -1787 1423 -3335 2821 -4482 804 -659 1753 -1168
2742 -1470 313 -95 624 -169 1075 -253 293 -55 763 -96 1202 -105 l321 -6
-683 -609 c-376 -335 -683 -613 -683 -618 0 -4 7 -8 15 -8 13 0 14 -11 8 -72
-13 -123 -10 -154 17 -183 15 -16 33 -25 47 -23 14 2 353 307 858 771 l836
768 152 15 c679 64 1298 198 1977 429 2448 833 4445 2772 5395 5240 462 1199
666 2524 584 3795 -51 806 -200 1561 -454 2309 -42 123 -75 225 -73 226 2 2
2755 30 6118 64 3363 33 6253 63 6423 66 l307 6 0 -13671 0 -13670 -108 0
-109 0 -61 108 c-241 425 -506 1144 -937 2542 -131 428 -194 613 -252 748
-388 908 -1022 1407 -1900 1493 -221 22 -680 -2 -801 -42 -17 -6 -55 -27 -84
-46 -29 -20 -53 -32 -55 -27 -10 29 -103 182 -157 258 -525 732 -1554 1004
-2351 621 -441 -212 -616 -584 -496 -1057 28 -113 103 -309 125 -327 7 -6 69
31 187 115 l176 123 113 -9 c459 -41 728 -234 843 -605 81 -262 67 -649 -38
-1005 -13 -47 -25 -88 -25 -92 0 -9 74 -48 92 -48 7 0 30 18 53 39 22 22 67
56 99 75 44 27 70 52 104 103 145 217 304 290 460 212 126 -63 200 -181 189
-301 -13 -145 -167 -335 -399 -495 -58 -40 -70 -53 -89 -102 -12 -31 -51 -114
-87 -185 l-66 -128 29 -56 c46 -88 135 -176 219 -217 127 -63 254 -56 408 21
240 120 540 440 697 744 146 282 208 529 218 875 5 180 0 253 -32 525 l-6 45
27 -50 c39 -71 95 -204 138 -323 89 -247 141 -443 366 -1377 164 -679 312
-1120 509 -1514 116 -230 251 -445 374 -593 l39 -48 -1076 0 c-592 0 -1076 -3
-1076 -7 1 -5 22 -24 48 -43 153 -112 546 -445 827 -700 210 -191 683 -662
870 -868 l140 -154 200 6 c110 3 533 8 940 11 790 6 1419 12 2430 25 689 8
673 7 805 71 94 46 213 168 268 276 74 143 82 195 82 510 0 302 -9 374 -60
495 -78 182 -228 320 -390 357 -27 6 -214 11 -472 11 -234 0 -433 3 -442 6
-15 6 -16 1220 -16 13674 l0 13668 23 6 c12 3 191 6 399 6 417 0 481 6 591 59
175 85 307 257 352 463 14 66 16 121 12 380 -3 270 -6 310 -24 364 -35 105
-83 185 -158 259 -75 75 -142 114 -241 140 -52 13 -917 15 -7654 15 l-7595 0
-112 158 c-886 1244 -2158 2241 -3585 2811 -1035 413 -2118 601 -3283 570
-1888 -51 -3725 -751 -5232 -1993 l-91 -76 -2537 2200 c-1395 1210 -2530 2202
-2523 2204 7 3 514 94 1126 202 847 151 1112 201 1112 212 0 15 -489 2973
-493 2983 -1 3 -328 -50 -727 -118z m9885 -8563 c723 -39 1355 -195 2007 -494
81 -37 155 -74 165 -82 15 -11 -351 -13 -2452 -13 l-2470 0 60 31 c92 48 294
134 463 199 701 269 1502 398 2227 359z m-20948 -152 c26 -24 31 -74 11 -100
-19 -23 -6581 -4036 -6663 -4074 -121 -56 -183 -68 -345 -68 -161 -1 -241 16
-362 74 -35 16 -612 378 -1283 804 -1156 733 -1220 775 -1220 802 0 26 4 29
30 29 22 -1 348 -199 1220 -744 655 -409 1212 -757 1239 -773 27 -16 90 -44
140 -61 83 -28 102 -31 221 -31 148 -1 215 13 330 69 38 19 1539 948 3335
2064 2344 1457 3273 2030 3294 2030 17 1 39 -8 53 -21z m25260 -2413 c204
-333 361 -663 509 -1071 152 -420 254 -895 306 -1429 19 -198 16 -828 -5
-1035 -83 -799 -283 -1485 -631 -2165 -559 -1091 -1428 -1973 -2496 -2533
-495 -260 -1100 -462 -1663 -557 -335 -56 -568 -75 -917 -75 -874 0 -1629 176
-2390 556 -753 377 -1387 908 -1898 1589 -561 746 -931 1652 -1061 2595 -41
298 -46 387 -46 800 0 434 9 558 61 900 129 842 430 1634 896 2358 33 50 61
92 62 93 3 2 9103 97 9151 95 l49 -1 73 -120z m-37652 -4115 c53 -20 141 -260
184 -500 66 -366 50 -805 -45 -1270 -102 -497 -289 -1013 -576 -1585 -129
-258 -405 -744 -426 -753 -8 -2 -20 2 -28 9 -12 13 3 45 108 234 479 869 774
1695 852 2395 59 525 2 1032 -149 1330 -36 72 -30 121 18 140 29 12 31 12 62
0z m-332 -1102 c30 -36 29 -40 -99 -513 -100 -365 -653 -2345 -690 -2468 -13
-42 -84 -41 -84 1 0 9 101 411 225 892 179 695 465 1830 517 2052 15 65 89 85
131 36z"/>
<path d="M36337 45525 c-244 -46 -461 -164 -654 -356 -169 -167 -261 -307
-442 -674 -123 -247 -196 -425 -246 -595 -33 -110 -36 -117 -87 -163 -98 -89
-231 -168 -553 -327 -475 -233 -599 -313 -777 -498 -185 -192 -280 -387 -328
-674 -24 -143 -48 -224 -100 -328 -99 -198 -274 -355 -478 -430 -45 -16 -169
-45 -279 -65 -748 -135 -1344 -387 -1798 -760 -130 -107 -332 -315 -421 -435
-325 -434 -499 -959 -521 -1565 -26 -737 256 -1257 832 -1535 91 -44 222 -90
470 -165 325 -98 600 -377 684 -695 46 -172 47 -270 6 -530 -48 -303 18 -597
192 -858 68 -102 236 -280 348 -367 195 -153 486 -314 672 -374 318 -103 641
-106 978 -10 39 11 78 22 87 25 13 4 4 -20 -32 -89 -125 -237 -153 -379 -380
-1927 -150 -1019 -269 -1691 -410 -2315 -33 -148 -63 -278 -66 -287 -5 -17
-110 -18 -2025 -18 l-2019 0 0 55 c0 191 -202 311 -369 220 -65 -36 -95 -75
-146 -189 l-38 -86 -5259 0 c-2892 0 -5258 -2 -5258 -5 0 -3 22 -49 49 -103
96 -193 277 -595 576 -1282 188 -433 227 -513 328 -687 l71 -123 495 6 c569 7
8015 81 8017 80 4 -2 -1256 -2713 -1266 -2723 -9 -10 -577 -13 -2778 -13
-1733 0 -2780 -4 -2801 -10 -69 -20 -171 -135 -171 -195 0 -13 319 -15 3101
-13 l3102 3 684 1474 c376 811 685 1476 687 1478 4 4 3599 42 3978 43 l216 0
56 46 57 46 122 -31 c411 -102 1004 -213 1467 -275 936 -126 1667 -138 2278
-40 56 10 108 22 116 28 7 6 23 67 35 136 12 68 24 127 27 129 3 3 330 8 727
12 397 4 994 10 1327 13 1141 12 9645 96 9728 96 76 0 82 -2 82 -20 0 -21 10
-48 183 -485 1401 -3546 1783 -4509 1805 -4550 37 -69 165 -195 231 -228 l55
-27 5295 0 5294 0 37 39 c45 47 70 115 70 191 0 113 -52 200 -151 255 l-54 30
-1913 5 -1913 5 -1123 2380 c-617 1309 -1135 2399 -1151 2423 -15 23 -26 44
-24 46 5 4 760 14 1766 23 l771 6 28 76 c106 297 351 881 614 1466 61 138 114
256 117 263 4 9 -2141 12 -10707 12 -10197 0 -10711 1 -10706 18 3 9 26 130
52 267 25 138 181 959 346 1825 165 866 310 1636 323 1710 29 166 45 332 45
468 l0 103 323 -2 c251 -1 328 1 350 11 62 30 371 496 684 1030 419 717 864
1545 1494 2781 341 668 439 870 439 900 0 37 -38 96 -73 112 -51 25 -489 41
-843 32 l-282 -7 -52 -217 c-54 -224 -66 -255 -103 -271 -36 -16 -1824 -102
-1847 -90 -49 26 -50 59 -9 279 43 225 46 239 72 256 14 9 98 22 237 36 118
11 218 24 221 28 4 3 18 55 33 115 14 61 32 116 39 123 7 8 89 26 180 42 92
15 170 31 173 34 11 10 -72 184 -150 314 -88 148 -221 328 -362 493 -246 286
-739 741 -887 817 -68 35 -183 43 -276 18 -35 -9 -66 -14 -69 -11 -2 3 9 225
27 493 17 269 33 531 36 583 3 74 -79 -486 -170 -1158 -9 -59 -76 -155 -158
-223 -144 -121 -412 -227 -740 -294 -293 -59 -386 -46 -387 58 0 37 509 2348
530 2401 9 24 3 33 -69 112 -83 91 -89 105 -122 259 -11 51 -21 69 -70 122
-259 279 -277 504 -49 599 43 18 106 20 153 5 51 -17 122 -99 167 -193 26 -54
59 -103 93 -138 30 -30 58 -63 64 -74 8 -15 17 -17 50 -11 l41 6 -5 162 c-19
567 174 916 549 991 88 18 214 20 308 6 l65 -10 112 -115 c61 -63 115 -115
120 -115 14 1 73 88 119 175 187 351 132 656 -161 892 -147 117 -311 201 -495
250 -121 32 -359 41 -483 18z m-2381 -3171 c-38 -81 -63 -193 -86 -399 -29
-255 -49 -352 -95 -460 -55 -127 -203 -294 -345 -389 -178 -119 -342 -182
-810 -311 -626 -173 -1207 -376 -1450 -507 -373 -202 -603 -515 -703 -955 -19
-85 -22 -127 -21 -313 0 -200 2 -223 28 -335 66 -283 196 -525 381 -711 98
-98 232 -194 271 -194 14 0 34 5 45 10 12 7 19 7 19 1 0 -18 -41 -33 -75 -27
-83 16 -281 187 -402 346 -73 97 -180 307 -217 427 -56 180 -70 274 -70 478
-1 160 3 208 22 302 77 381 275 697 559 894 242 167 824 384 1622 604 448 123
602 182 774 294 100 66 236 196 294 284 88 133 119 239 153 537 29 254 52 356
102 453 30 61 34 34 4 -29z m-2861 -2516 c-221 -174 -350 -474 -332 -778 12
-217 96 -469 221 -664 20 -32 35 -63 33 -69 -5 -16 -64 76 -121 192 -204 405
-201 825 8 1140 51 76 188 211 215 211 10 -1 2 -12 -24 -32z m3285 -577 c181
-119 377 -371 543 -700 82 -160 177 -383 177 -412 0 -8 -19 -37 -42 -64 -78
-94 -280 -369 -387 -530 -289 -430 -486 -833 -536 -1096 -8 -45 -15 -125 -15
-179 0 -162 42 -263 150 -363 102 -94 247 -153 465 -188 89 -15 458 -16 540
-2 l50 8 -3 130 c-4 150 11 241 57 361 122 313 314 418 656 358 198 -34 482
-108 770 -200 77 -24 146 -48 152 -52 27 -17 -25 -141 -81 -189 -49 -44 -96
-57 -183 -50 -40 3 -73 4 -73 3 0 -2 43 -36 95 -75 52 -40 95 -79 95 -86 0
-25 -29 -81 -56 -108 -44 -44 -95 -54 -172 -34 -36 10 -66 16 -68 14 -2 -1 32
-41 74 -88 115 -127 108 -112 71 -154 -76 -86 -178 -103 -286 -47 -34 18 -70
32 -79 32 -38 0 -89 -39 -220 -168 -148 -146 -208 -188 -326 -230 -61 -21 -93
-26 -192 -28 -65 -1 -121 -6 -125 -11 -11 -17 -95 -70 -166 -106 -168 -84
-365 -134 -579 -146 -560 -32 -1109 153 -1447 489 -152 152 -246 309 -297 500
-22 82 -25 117 -26 250 -1 133 3 174 27 289 90 429 239 867 483 1421 155 353
497 1012 720 1387 l84 142 47 -21 c27 -11 73 -37 103 -57z m17645 -13352 c181
-68 357 -301 432 -574 25 -89 28 -117 28 -255 0 -135 -3 -164 -23 -225 -51
-154 -144 -245 -267 -262 -192 -26 -439 195 -546 486 -66 181 -86 382 -54 534
52 248 231 371 430 296z"/>
<path d="M41404 42025 c-423 -377 -781 -702 -796 -722 -23 -29 -28 -46 -28
-93 0 -71 27 -116 90 -147 53 -28 94 -29 141 -5 19 10 333 291 697 626 658
605 661 608 669 654 4 26 7 74 7 107 -1 62 -8 265 -10 265 0 0 -347 -308 -770
-685z"/>
<path d="M19697 35105 c-134 -37 -260 -140 -332 -274 -50 -92 -88 -123 -161
-129 -44 -4 -66 1 -113 22 -73 32 -95 32 -163 1 -56 -26 -119 -32 -164 -15
-14 6 -56 39 -93 74 -253 243 -518 287 -813 134 -99 -51 -195 -150 -229 -235
-33 -82 -33 -247 -1 -349 48 -153 13 -232 -123 -283 -156 -58 -273 -157 -315
-266 -53 -134 -20 -387 61 -471 l31 -32 -37 -38 c-45 -45 -81 -120 -96 -200
-23 -122 11 -341 73 -477 20 -43 28 -71 21 -75 -5 -4 -108 -70 -229 -147 -299
-190 -752 -493 -971 -649 l-181 -130 51 -21 c29 -12 97 -56 152 -99 135 -107
429 -315 666 -474 188 -125 366 -260 418 -316 l24 -26 151 157 c83 86 219 219
301 295 l150 139 6 -38 c13 -89 45 -119 239 -221 345 -182 1089 -456 1185
-436 52 10 109 50 132 92 58 103 218 636 303 1012 54 242 53 279 -15 350 l-33
35 161 800 161 800 131 0 c145 1 208 14 308 68 150 79 232 269 244 562 11 289
-63 503 -232 672 -96 95 -196 149 -335 183 -99 23 -257 26 -333 5z"/>
<path d="M16120 28867 c-30 -16 -51 -37 -67 -67 -37 -69 -31 -113 33 -263 171
-402 401 -826 645 -1187 225 -333 256 -364 360 -358 67 5 111 33 139 88 40 78
25 132 -70 261 -84 113 -229 334 -330 504 -104 175 -348 655 -424 836 -60 144
-78 168 -138 194 -52 21 -98 19 -148 -8z"/>
<path d="M22635 25215 c-582 -135 -935 -224 -935 -235 0 -4 39 -73 88 -154
l87 -147 1325 -5 c729 -3 1323 -4 1320 -1 -10 10 -976 615 -1005 630 -55 28
-151 47 -231 46 -64 -1 -190 -27 -649 -134z"/>
<path d="M13835 22940 c-16 -6 -104 -26 -195 -44 -679 -141 -1455 -172 -2285
-90 -191 18 -520 65 -700 98 -71 14 -134 21 -138 17 -22 -22 -91 -310 -122
-511 -22 -144 -31 -480 -16 -595 63 -478 343 -892 766 -1132 159 -90 356 -157
538 -182 66 -9 1763 -88 5713 -266 562 -25 1039 -51 1060 -57 66 -18 109 -45
158 -99 37 -42 51 -67 72 -138 72 -244 146 -432 271 -691 l75 -155 -6 -415
c-11 -788 -64 -1679 -166 -2800 -56 -610 -167 -1646 -191 -1785 -9 -48 -52
-205 -145 -516 -2 -9 -13 -19 -22 -21 -14 -4 -40 -79 -116 -333 -94 -313 -98
-330 -94 -400 8 -126 79 -233 193 -293 l50 -27 835 -3 835 -2 0 92 c1 87 9
123 118 526 64 239 117 436 117 439 0 8 -312 -4 -685 -26 -170 -10 -311 -17
-313 -16 -4 4 38 326 43 336 3 3 24 9 47 12 72 11 117 27 127 45 14 26 154
563 292 1116 128 518 281 1171 379 1626 34 157 67 305 73 329 l12 43 110 -138
c61 -76 211 -260 335 -408 124 -148 235 -281 247 -295 11 -14 23 -24 26 -21 5
5 627 2334 627 2347 0 5 -195 340 -433 746 l-432 738 14 157 c19 216 21 959 3
1102 -41 327 -123 547 -242 654 -129 116 -634 259 -1425 405 -1057 194 -2837
415 -4760 590 -528 48 -611 54 -650 41z"/>
<path d="M54890 21067 c0 -4 308 -268 1830 -1568 652 -556 1205 -1030 1230
-1052 l45 -40 1475 7 c1852 8 3180 28 3180 47 0 8 -102 253 -675 1614 -95 226
-228 542 -295 703 l-123 292 -3333 0 c-1834 0 -3334 -1 -3334 -3z"/>
<path d="M62079 21048 c21 -54 1080 -2570 1083 -2573 4 -3 279 21 383 35 113
15 303 54 418 86 326 91 566 253 670 452 47 90 82 191 98 282 16 92 16 335 0
450 -37 263 -155 586 -381 1048 l-119 242 -1080 0 -1081 0 9 -22z"/>
<path d="M35020 20919 c-136 -82 -242 -227 -286 -389 -31 -119 -23 -207 73
-795 l88 -540 73 -3 72 -3 0 155 c0 339 47 575 132 660 36 36 41 38 83 34 68
-8 145 -60 282 -192 133 -128 231 -238 392 -438 175 -219 172 -218 628 -218
380 0 391 2 434 61 32 46 34 144 3 186 -37 51 -86 67 -223 71 l-123 4 -252
176 c-292 204 -889 606 -960 647 -159 93 -297 294 -352 515 -10 41 -21 78 -24
82 -3 4 -21 -2 -40 -13z"/>
<path d="M29398 20357 c-59 -70 -133 -185 -192 -297 -94 -179 -226 -530 -226
-601 0 -82 56 -171 132 -210 63 -32 208 -42 528 -36 316 6 451 19 522 49 53
23 122 92 144 143 19 45 107 760 99 805 -4 19 -12 46 -19 59 -13 23 -14 23
-19 5 -10 -33 -46 -235 -61 -340 -8 -56 -21 -114 -29 -130 -36 -68 -125 -121
-259 -155 -105 -26 -393 -38 -480 -20 -184 39 -312 182 -295 331 4 30 39 116
101 243 52 109 94 197 92 197 -1 0 -18 -19 -38 -43z"/>
<path d="M22251 17614 c-36 -135 -521 -2111 -521 -2124 1 -46 1514 -1616 1616
-1676 23 -14 65 -27 93 -31 28 -3 55 -11 61 -18 5 -6 95 -180 199 -386 148
-292 217 -443 316 -689 70 -173 141 -335 159 -359 92 -129 281 -177 427 -108
34 16 373 281 914 717 473 380 864 697 869 704 6 9 -143 641 -225 948 l-9 36
-73 -20 c-134 -38 -282 -103 -391 -173 -113 -72 -332 -258 -756 -639 -151
-137 -296 -266 -321 -287 l-47 -39 -186 339 c-102 186 -186 342 -186 346 0 4
9 18 20 32 13 16 20 41 20 67 0 38 -102 217 -966 1692 -531 907 -974 1662
-984 1678 l-18 30 -11 -40z"/>
<path d="M26940 14643 c0 -5 25 -108 57 -231 41 -159 61 -221 70 -217 31 11
201 157 211 180 20 43 15 123 -10 163 -27 43 -76 66 -193 87 -49 8 -100 18
-112 21 -13 2 -23 1 -23 -3z"/>
<path d="M57657 13484 c-3 -5 -19 -88 -37 -184 -167 -921 -360 -1631 -524
-1924 -100 -179 -242 -250 -521 -263 -150 -6 -295 10 -478 53 l-118 28 -152
-77 c-84 -42 -201 -108 -262 -148 -115 -75 -255 -201 -255 -229 0 -80 319
-156 762 -182 432 -25 891 31 1167 143 l84 34 79 145 c109 198 368 721 452
910 277 625 433 1130 453 1465 5 96 4 101 -18 122 -37 34 -117 69 -199 88 -83
20 -423 34 -433 19z"/>
<path d="M21111 12987 c-62 -249 -114 -460 -117 -469 -5 -17 23 -18 488 -18
474 0 494 1 526 20 47 29 72 76 72 136 0 62 -24 103 -142 234 -200 224 -423
402 -645 513 l-71 36 -111 -452z"/>
<path d="M52420 11423 c-437 -202 -1357 -374 -2364 -443 -125 -9 -153 -8 -178
4 -28 15 -29 14 -44 -17 -38 -84 -262 -622 -259 -625 3 -3 424 15 525 23 620
49 1202 119 1930 230 552 85 582 91 602 117 72 96 92 307 42 454 -38 114 -148
285 -182 283 -10 0 -42 -12 -72 -26z"/>
<path d="M49215 10793 c-186 -156 -290 -262 -343 -352 l-23 -39 73 -16 c148
-30 136 -32 159 22 63 142 170 404 167 407 -2 2 -16 -8 -33 -22z"/>
</g>
</svg>
