<svg xmlns="http://www.w3.org/2000/svg" width="412.192" height="298.794" viewBox="0 0 412.192 298.794">
  <g id="wfh_9" transform="translate(-228.77 -200.25)">
    <rect id="Rectangle_3514" data-name="Rectangle 3514" width="152.36" height="152.36" rx="29.33" transform="translate(235.427 276.31)" fill="#f5ebdd"/>
    <circle id="Ellipse_1236" data-name="Ellipse 1236" cx="3.677" cy="3.677" r="3.677" transform="translate(355.649 264.398)" fill="#a15842"/>
    <line id="Line_230" data-name="Line 230" y2="11.559" transform="translate(359.327 255.292)" fill="none" stroke="#a15842" stroke-miterlimit="10" stroke-width="4"/>
    <rect id="Rectangle_3515" data-name="Rectangle 3515" width="5.596" height="48.334" transform="translate(369.578 259.147)" fill="#a15842"/>
    <path id="Path_734" data-name="Path 734" d="M593.069,252.66a18.929,18.929,0,0,1-33.315,0L549.27,292.512h54.286Z" transform="translate(-204.035 -33.365)" fill="#ffbe21"/>
    <line id="Line_231" data-name="Line 231" x2="7.05" y2="39.086" transform="translate(384.509 220.069)" fill="none" stroke="#f5ebdd" stroke-linecap="round" stroke-miterlimit="10" stroke-width="4"/>
    <line id="Line_232" data-name="Line 232" x1="6.959" y2="38.577" transform="translate(353.287 220.578)" fill="none" stroke="#f5ebdd" stroke-linecap="round" stroke-miterlimit="10" stroke-width="4"/>
    <line id="Line_233" data-name="Line 233" x1="2.696" y2="38.813" transform="translate(365.108 220.327)" fill="none" stroke="#f5ebdd" stroke-linecap="round" stroke-miterlimit="10" stroke-width="4"/>
    <line id="Line_234" data-name="Line 234" x2="2.704" y2="38.889" transform="translate(376.947 220.327)" fill="none" stroke="#f5ebdd" stroke-linecap="round" stroke-miterlimit="10" stroke-width="4"/>
    <path id="Path_735" data-name="Path 735" d="M594.792,262.455a18.289,18.289,0,0,0,16.658-9.939v-.076H578.142l-.022.076A18.3,18.3,0,0,0,594.792,262.455Z" transform="translate(-222.402 -33.225)" fill="#ff7235"/>
    <rect id="Rectangle_3516" data-name="Rectangle 3516" width="152.36" height="152.36" rx="29.33" transform="translate(443.825 201.704)" fill="#f5ebdd"/>
    <path id="Path_736" data-name="Path 736" d="M610.89,965.271h0a4.143,4.143,0,0,1-4.114-3.634L603.71,935.87h14.361L615,961.638A4.139,4.139,0,0,1,610.89,965.271Z" transform="translate(-238.693 -468.307)" fill="#30242a"/>
    <path id="Path_737" data-name="Path 737" d="M1054.267,965.271h0a4.135,4.135,0,0,1-4.11-3.634l-3.067-25.768h14.357l-3.067,25.768A4.139,4.139,0,0,1,1054.267,965.271Z" transform="translate(-520.955 -468.307)" fill="#30242a"/>
    <path id="Path_738" data-name="Path 738" d="M340.094,642.81h64.468V749.645H310.7V672.2a29.393,29.393,0,0,1,29.391-29.391Z" transform="translate(-52.158 -281.741)" fill="#ffb7d5"/>
    <path id="Path_739" data-name="Path 739" d="M538.657,495.334H760.772a29.394,29.394,0,0,1,29.394,29.394V655.746H509.27V524.724a29.394,29.394,0,0,1,29.394-29.394Z" transform="translate(-178.571 -187.852)" fill="#ffb7d5"/>
    <line id="Line_235" data-name="Line 235" y2="91.082" transform="translate(330.692 376.811)" fill="none" stroke="#a15842" stroke-linecap="round" stroke-miterlimit="10" stroke-width="4"/>
    <path id="Path_740" data-name="Path 740" d="M538.657,760.4H760.772a29.394,29.394,0,0,1,29.394,29.394v34.7H509.27v-34.7A29.394,29.394,0,0,1,538.657,760.4Z" transform="translate(-178.571 -356.6)" fill="#ffb7d5"/>
    <path id="Path_741" data-name="Path 741" d="M674.422,760.4H537.564a28.344,28.344,0,0,0-28.344,28.344v35.764" transform="translate(-178.539 -356.6)" fill="none" stroke="#a15842" stroke-linecap="round" stroke-miterlimit="10" stroke-width="4"/>
    <line id="Line_236" data-name="Line 236" y2="63.647" transform="translate(517.028 404.247)" fill="none" stroke="#a15842" stroke-miterlimit="10" stroke-width="4"/>
    <line id="Line_237" data-name="Line 237" x1="65.536" transform="translate(546.059 360.368)" fill="none" stroke="#a15842" stroke-miterlimit="10" stroke-width="4"/>
    <path id="Path_742" data-name="Path 742" d="M412.773,556.613c8.405,1.05,11.025-2.518,12.257-5.6,1.4-3.5.5-6.508-.592-10.418,0,0,2.776-1.512,2.344-3.245-.363-1.4-3.521-1.555-3.521-1.555q-.185-.937-.331-1.944a40.416,40.416,0,0,0-1.752-7.707,13.723,13.723,0,0,1-6.654,0,20.957,20.957,0,0,1-7.355,9.811s-7.707-8.405-12.609-2.1c-4,5.142,1.751,11.556,5.6,12.257-2.289,4.829-8.449,7.631-11.654,8.8.2,1.519.382,2.929.545,4.157h23.983Z" transform="translate(-101.693 -207.467)" fill="#eaa58b"/>
    <path id="Path_743" data-name="Path 743" d="M639.637,610.81a136.437,136.437,0,0,0,3.1-13.671l-8.405-22.766s3.5-9.448.363-10.858-10.171,7.715-12.973,15.062c-1.21,3.176-4.517,10.476-7.878,17.74Z" transform="translate(-245.142 -231.168)" fill="#eaa58b"/>
    <path id="Path_744" data-name="Path 744" d="M432.172,649.354s-20.313-17.163-29.107-23.471a30.1,30.1,0,0,0-18.874-5.247l-.44-3.855H359.767c.363,2.736.6,4.553.6,4.553L342.51,685.082l53.232-4.2-1.4-19.623s28.707,23.983,45.183,21.716c14.859-2.057,23.3-23.511,27.374-38.155l-25.8-14.492C436.692,639.866,432.172,649.354,432.172,649.354Z" transform="translate(-72.409 -265.169)" fill="#3ec1f3"/>
    <path id="Path_745" data-name="Path 745" d="M395.729,523.193c-3.852-.7-9.6-7.115-5.6-12.257,4.9-6.3,12.609,2.1,12.609,2.1a20.956,20.956,0,0,0,7.355-9.811,13.723,13.723,0,0,0,6.654,0s5.255-1.752,4.9-5.952c-.469-5.64-9.106-3.154-9.106-3.154s-9.448-7.006-19.623-2.453c-10.843,4.88-11.9,14.717-11.207,21.371.4,3.819,1.494,12.355,2.355,18.958C387.28,530.82,393.439,528.022,395.729,523.193Z" transform="translate(-97.258 -184.54)" fill="#30242a"/>
    <path id="Path_746" data-name="Path 746" d="M666.339,626.594c-1.6.661-3.009.854-3.634.494-1.57-.894-1.817-2.765.047-5.4,0,0-4.43,1.726-5.8-.52s.687-4.313.687-4.313-3.136.865-3.9-1.926a3.854,3.854,0,0,1,1.817-4.252,2.892,2.892,0,0,1-1.817-2.5c-.069-2.678,4.3-4.851,5.552-5.422" transform="translate(-270.453 -256.244)" fill="none" stroke="#a15842" stroke-linecap="round" stroke-miterlimit="10" stroke-width="8"/>
    <line id="Line_238" data-name="Line 238" x1="1.297" y1="15.149" transform="translate(321.411 380.859)" fill="none" stroke="#4756df" stroke-linecap="round" stroke-miterlimit="10" stroke-width="4"/>
    <path id="Path_747" data-name="Path 747" d="M444.184,607.909a22.167,22.167,0,0,1-5.814-2.209" transform="translate(-133.435 -258.116)" fill="none" stroke="#a15842" stroke-linecap="round" stroke-miterlimit="10" stroke-width="4"/>
    <line id="Line_239" data-name="Line 239" y1="24.002" x2="9.026" transform="translate(272.376 391.179)" fill="none" stroke="#4756df" stroke-linecap="round" stroke-miterlimit="10" stroke-width="4"/>
    <path id="Path_748" data-name="Path 748" d="M473.154,573.988a2.837,2.837,0,0,1-3.634-1.028" transform="translate(-153.265 -237.273)" fill="none" stroke="#a15842" stroke-linecap="round" stroke-miterlimit="10" stroke-width="4"/>
    <circle id="Ellipse_1237" data-name="Ellipse 1237" cx="1.05" cy="1.05" r="1.05" transform="translate(315.633 326.744)" fill="#a15842"/>
    <line id="Line_240" data-name="Line 240" x2="3.852" y2="2.1" transform="translate(297.421 330.948)" fill="none" stroke="#a15842" stroke-linecap="round" stroke-miterlimit="10" stroke-width="4"/>
    <path id="Path_749" data-name="Path 749" d="M661.6,914.076l26.829-7.94c-2.046-7.071-5.959-20.477-8.478-28.286L646.47,891.826A153.349,153.349,0,0,0,661.6,914.076Z" transform="translate(-265.914 -431.371)" fill="#eaa58b"/>
    <path id="Path_750" data-name="Path 750" d="M447.57,835.088l9.713,4.564-8.925-5.393C447.843,834.8,447.57,835.088,447.57,835.088Z" transform="translate(-139.291 -403.621)" fill="none"/>
    <path id="Path_751" data-name="Path 751" d="M551.52,885.37l8.46,3.972,1.762-1.614Z" transform="translate(-205.468 -436.158)" fill="none"/>
    <path id="Path_752" data-name="Path 752" d="M686.953,964.223a46.518,46.518,0,0,0-1.453,9.11h47.462a10.64,10.64,0,0,0-4.593-5.182l-13.747-7.784s-.523-1.817-1.348-4.688l-26.829,7.944C686.772,964.016,686.953,964.223,686.953,964.223Z" transform="translate(-290.761 -480.918)" fill="#ffbe21"/>
    <path id="Path_753" data-name="Path 753" d="M685.428,1008.81h48.33l-.149-1.5a10.59,10.59,0,0,0-.774-3.052H685.373A28.231,28.231,0,0,0,685.428,1008.81Z" transform="translate(-290.638 -511.845)" fill="#ff7235"/>
    <path id="Path_754" data-name="Path 754" d="M511.646,763.607a109.224,109.224,0,0,0,9.582,22.33l33.479-13.976c-.363-1.174-.727-2.22-1.032-3.1-10.476-30.274-16.81-54.62-32.221-57.088-24.256-3.859-65.518,37.916-71.714,44.333l8.925,5.411,28.061,13.18,10.222,2.358Z" transform="translate(-140.673 -325.481)" fill="#a15842"/>
    <path id="Path_755" data-name="Path 755" d="M615.961,833.374A57.06,57.06,0,0,1,614.8,821.6" transform="translate(-245.751 -395.561)" fill="none" stroke="#30242a" stroke-linecap="round" stroke-miterlimit="10" stroke-width="4"/>
    <path id="Path_756" data-name="Path 756" d="M827.384,626.407s-33.566,8.856-48.33,17.163c-16.814,9.448-17.864,22.065-28.369,53.937-3.383,10.258-5.774,18.5-7.995,24.975l28.94,13.663.055-.109s14.172-2.082,15.411-19.623c.934-13.082,1.381-22.788,5.952-32.574l78.106-57.44Z" transform="translate(-327.169 -271.294)" fill="#30242a"/>
    <path id="Path_757" data-name="Path 757" d="M671.739,910.051c-10.12,1.533-14.343,3.5-15.989,8.093l19.118,8.9s10.251-2.907,15.771-1.486v.018a61.5,61.5,0,0,1,10.782,3.608,161.036,161.036,0,0,0,14.9-24.71l-28.94-13.663C683.229,902.929,679.77,908.834,671.739,910.051Z" transform="translate(-271.822 -439.621)" fill="#4856df"/>
    <path id="Path_758" data-name="Path 758" d="M739.09,993.152l9.324,4.339a82.974,82.974,0,0,0,6.039-7.4,61.507,61.507,0,0,0-10.782-3.608Z" transform="translate(-324.878 -500.526)" fill="#30242a"/>
    <line id="Line_241" data-name="Line 241" x2="6.49" y2="2.838" transform="translate(409.427 462.879)" fill="none" stroke="#f5ebdd" stroke-linecap="round" stroke-miterlimit="10" stroke-width="4"/>
    <line id="Line_242" data-name="Line 242" x2="6.49" y2="2.842" transform="translate(405.738 467.381)" fill="none" stroke="#f5ebdd" stroke-linecap="round" stroke-miterlimit="10" stroke-width="4"/>
    <circle id="Ellipse_1238" data-name="Ellipse 1238" cx="3.677" cy="3.677" r="3.677" transform="translate(530.51 269.827)" fill="#ffbe21"/>
    <circle id="Ellipse_1239" data-name="Ellipse 1239" cx="14.71" cy="14.71" r="14.71" transform="translate(532.44 220.97)" fill="#30242a"/>
    <path id="Path_759" data-name="Path 759" d="M1057.18,298.442c.9.414-6.654-17.515-10.505-14.713C1043.033,286.367,1052.612,296.357,1057.18,298.442Z" transform="translate(-520.176 -52.955)" fill="#3ec1f3"/>
    <path id="Path_760" data-name="Path 760" d="M1078.055,309.62c.825.985,20.092-5.756,17.442-9.648C1092.914,296.232,1077.234,308.62,1078.055,309.62Z" transform="translate(-540.648 -63.038)" fill="#3ec1f3"/>
    <path id="Path_761" data-name="Path 761" d="M1177.21,520.036l1.686-.262v-.494A14.5,14.5,0,0,1,1177.21,520.036Z" transform="translate(-603.792 -203.099)" fill="#30242a"/>
    <path id="Path_762" data-name="Path 762" d="M1017.984,409.513c16.4.3,24.67-16.4,26.77-21.378-.727-.134-1.453-.251-2.253-.338-9.448-1.05-11.207-1.4-14.361-5.6s-3.5-12.609-3.5-12.609,8.169-1.817,7.006-8.405c-1.05-5.956-8.056-5.956-11.908-1.751,0,0-5.956-1.4-11.559-7.707a21.918,21.918,0,0,1-6.9.494c-.727,4.586-.683,9.717-1.512,13.867-1.4,7.006-.363,11.559,3.852,14.012s9.106.7,9.106.7l-1.05,6.3a71.177,71.177,0,0,0-11.214,2.311C1001.468,397.321,1005.113,409.28,1017.984,409.513Z" transform="translate(-490.45 -96.428)" fill="#a15842"/>
    <path id="Path_763" data-name="Path 763" d="M1111.139,624.154l1.908-1.294-3.307,1.294Z" transform="translate(-560.839 -269.04)" fill="#a15842"/>
    <path id="Path_764" data-name="Path 764" d="M840.8,444.532s-18.362-25.074-22.766-30.125c-4.906-5.6-11.559-11.556-13.66-9.448s3.852,9.106,3.852,9.106l-1.05,22.766s12.064,32.534,25.219,36.778c6.577,2.122,19.07-3.474,27.9-8.213l-13.652-24.71C843.168,442.962,840.8,444.532,840.8,444.532Z" transform="translate(-366.152 -130.044)" fill="#a15842"/>
    <path id="Path_765" data-name="Path 765" d="M1014.4,477.16s-1.4-7.7-3.154-11.908c-2.62-6.294-6.944-11.628-15.96-13.322-2.1,4.982-10.375,21.676-26.771,21.378C955.646,473.075,952,461.116,951,453.2a25.723,25.723,0,0,0-3.147,1.192c-3.7,1.726-18.14,11.08-26.382,16.472l13.638,24.7c5.738-3.078,9.928-5.814,9.928-5.814l-3.852,25.568h48.693l3.307-1.294,22.893-15.531A144.261,144.261,0,0,0,1014.4,477.16Z" transform="translate(-440.983 -160.223)" fill="#ff7235"/>
    <path id="Path_766" data-name="Path 766" d="M1077.722,371.934c-2.511-11.923-15.411-11.559-15.411-11.559a17.741,17.741,0,0,0-4.553-16.113c-7.006-7.355-16.814-4.2-16.814-4.2.363-4.2,1.05-15.059-8.056-21.712s-20.662-3.154-24.867,2.1c-1.712,2.14-2.544,5.04-3.042,8.2a21.96,21.96,0,0,0,6.9-.494c5.6,6.3,11.559,7.707,11.559,7.707,3.852-4.2,10.858-4.2,11.908,1.752,1.163,6.588-7.006,8.405-7.006,8.405s.364,8.405,3.5,12.609,4.906,4.553,14.361,5.6c.785.087,1.533.2,2.253.338,9.016,1.69,13.34,7.028,15.96,13.322,1.751,4.2,3.154,11.908,3.154,11.908a14.473,14.473,0,0,0,1.668-.756C1072.639,387.272,1079.888,382.218,1077.722,371.934Z" transform="translate(-494.147 -72.858)" fill="#30242a"/>
    <line id="Line_243" data-name="Line 243" y1="1.748" x2="2.802" transform="translate(533.49 265.452)" fill="none" stroke="#30242a" stroke-linecap="round" stroke-miterlimit="10" stroke-width="4"/>
    <path id="Path_767" data-name="Path 767" d="M1018,405.318a2.837,2.837,0,0,0,3.634-1.028" transform="translate(-502.436 -129.895)" fill="none" stroke="#30242a" stroke-linecap="round" stroke-miterlimit="10" stroke-width="4"/>
    <circle id="Ellipse_1240" data-name="Ellipse 1240" cx="1.05" cy="1.05" r="1.05" transform="translate(520.226 265.441)" fill="#30242a"/>
    <circle id="Ellipse_1241" data-name="Ellipse 1241" cx="1.05" cy="1.05" r="1.05" transform="translate(512.123 264.049)" fill="#30242a"/>
    <path id="Path_768" data-name="Path 768" d="M1017.795,386.42s-.956,2.395-.727,2.874a1.792,1.792,0,0,0,.727.727" transform="translate(-501.82 -118.519)" fill="none" stroke="#30242a" stroke-linecap="round" stroke-miterlimit="10" stroke-width="4"/>
    <path id="Path_769" data-name="Path 769" d="M817.811,462.641a2.689,2.689,0,0,0,1.581-.531c1.239-1.239.988-3.052-1.432-5.029,0,0,4.586.476,5.284-1.977s-1.748-3.852-1.748-3.852,3.15,0,3.15-2.8a3.739,3.739,0,0,0-2.8-3.5,2.794,2.794,0,0,0,1.05-2.8c-.7-2.8-6.654-3.5-6.654-3.5l-.821-1" transform="translate(-373.47 -151.126)" fill="none" stroke="#30242a" stroke-linecap="round" stroke-linejoin="round" stroke-width="8"/>
    <path id="Path_770" data-name="Path 770" d="M1037,430.067a40.537,40.537,0,0,0,4.317-2.017" transform="translate(-514.532 -145.021)" fill="none" stroke="#30242a" stroke-linecap="round" stroke-miterlimit="10" stroke-width="4"/>
    <line id="Line_244" data-name="Line 244" x2="3.681" y2="4.982" transform="translate(475.519 314.407)" fill="none" stroke="#30242a" stroke-linecap="round" stroke-miterlimit="10" stroke-width="4"/>
    <line id="Line_245" data-name="Line 245" x1="1.788" y2="11.221" transform="translate(503.463 317.983)" fill="none" stroke="#a15842" stroke-linecap="round" stroke-miterlimit="10" stroke-width="4"/>
    <line id="Line_246" data-name="Line 246" x1="0.174" y1="18.035" transform="translate(548.374 322.718)" fill="none" stroke="#a15842" stroke-linecap="round" stroke-miterlimit="10" stroke-width="4"/>
    <path id="Path_771" data-name="Path 771" d="M1160.664,441.75a32.187,32.187,0,0,1-2.024,5.5" transform="translate(-591.97 -153.743)" fill="none" stroke="#000" stroke-linecap="round" stroke-linejoin="round" stroke-width="4"/>
    <line id="Line_247" data-name="Line 247" x1="0.992" y2="5.204" transform="translate(546.448 267.603)" fill="none" stroke="#000" stroke-linecap="round" stroke-linejoin="round" stroke-width="4"/>
    <path id="Path_772" data-name="Path 772" d="M940.869,627.384s-30.125,9.448-46.935,17.512c-16.716,7.994-14.71,26.618-11.559,59.192,1.116,11.516,2.42,20.531,3.081,27.672h31.978c1.643-.916,11.338-7.141,5.556-24.169-4.223-12.431-7.867-20.666-7.867-31.465h26.745a29.231,29.231,0,0,0,29.22-28.4l.585-20.348Z" transform="translate(-414.734 -271.918)" fill="#30242a"/>
    <path id="Path_773" data-name="Path 773" d="M858.361,937.67c-8.518,5.676-11.508,9.245-11.065,14.1l21.076-.029s8.056-6.973,13.66-8.024a59.757,59.757,0,0,1,11.265-1.05,155.923,155.923,0,0,0,2.907-27.9l.233-.12H864.458C865.574,926.634,864.865,933.328,858.361,937.67Z" transform="translate(-393.736 -454.798)" fill="#4856df"/>
    <path id="Path_774" data-name="Path 774" d="M939.33,1000.807h10.287a73.16,73.16,0,0,0,2.326-9.037,59.757,59.757,0,0,0-11.265,1.05Z" transform="translate(-452.354 -503.894)" fill="#30242a"/>
    <line id="Line_248" data-name="Line 248" x1="8.256" transform="translate(491.81 404.85)" fill="none" stroke="#000" stroke-linecap="round" stroke-linejoin="round" stroke-width="4"/>
    <line id="Line_249" data-name="Line 249" x2="7.896" transform="translate(470.079 473.675)" fill="none" stroke="#f5ebdd" stroke-linecap="round" stroke-miterlimit="10" stroke-width="4"/>
    <line id="Line_250" data-name="Line 250" x2="7.896" transform="translate(468.324 479.278)" fill="none" stroke="#f5ebdd" stroke-linecap="round" stroke-miterlimit="10" stroke-width="4"/>
    <circle id="Ellipse_1242" data-name="Ellipse 1242" cx="15.586" cy="15.586" r="15.586" transform="translate(346.107 386.986)" fill="#fff"/>
    <rect id="Rectangle_3517" data-name="Rectangle 3517" width="8.758" height="14.008" rx="4.379" transform="translate(357.314 393.465)" fill="#4856df"/>
    <line id="Line_251" data-name="Line 251" y2="4.906" transform="translate(361.692 406.075)" fill="none" stroke="#4856df" stroke-linecap="round" stroke-miterlimit="10" stroke-width="4"/>
    <line id="Line_252" data-name="Line 252" x2="5.018" transform="translate(359.181 410.98)" fill="none" stroke="#4856df" stroke-linecap="round" stroke-miterlimit="10" stroke-width="4"/>
    <circle id="Ellipse_1243" data-name="Ellipse 1243" cx="5.778" cy="5.778" r="5.778" transform="translate(245.933 286.815)" fill="#fff"/>
    <circle id="Ellipse_1244" data-name="Ellipse 1244" cx="5.778" cy="5.778" r="5.778" transform="translate(263.448 286.815)" fill="#fff"/>
    <circle id="Ellipse_1245" data-name="Ellipse 1245" cx="5.778" cy="5.778" r="5.778" transform="translate(280.959 286.815)" fill="#fff"/>
    <path id="Path_775" data-name="Path 775" d="M386.231,407.014a10.654,10.654,0,0,1,10.654,10.654V548.715a10.654,10.654,0,0,1-10.654,10.654H255.2a10.654,10.654,0,0,1-10.654-10.654V417.668A10.654,10.654,0,0,1,255.2,407.014H386.231m0-1.454H255.2a12.122,12.122,0,0,0-12.108,12.108V548.715A12.122,12.122,0,0,0,255.2,560.823H386.231a12.122,12.122,0,0,0,12.108-12.108V417.668A12.123,12.123,0,0,0,386.231,405.56Z" transform="translate(-9.116 -130.704)" fill="#f5ebdd"/>
    <path id="Path_776" data-name="Path 776" d="M1053.376,642.81h64.475V749.645H1024V672.2a29.393,29.393,0,0,1,29.372-29.391Z" transform="translate(-506.256 -281.741)" fill="#ffb7d5"/>
    <path id="Path_777" data-name="Path 777" d="M1218.64,869.955a12.609,12.609,0,0,1,23.816,0,12.617,12.617,0,0,1,11.214-8.442,31.473,31.473,0,0,0-3.957-5.549l-4.579-5.127a10.433,10.433,0,0,1-1.4-11.894l3.888-7.224h0a24.06,24.06,0,0,1-33.944,0h0l3.892,7.224a10.44,10.44,0,0,1-1.4,11.894l-4.579,5.127a31.4,31.4,0,0,0-3.964,5.56A12.609,12.609,0,0,1,1218.64,869.955Z" transform="translate(-623.157 -402.004)" fill="#4756df"/>
    <path id="Path_778" data-name="Path 778" d="M1247.267,956.994a12.617,12.617,0,0,0-11.908,8.467,12.606,12.606,0,0,0-23.816,0,12.613,12.613,0,0,0-15.062-8.067,31.371,31.371,0,0,0,9.019,21.316h36.077a31.356,31.356,0,0,0,9.016-21.269A12.68,12.68,0,0,0,1247.267,956.994Z" transform="translate(-616.059 -481.753)" fill="#4756df"/>
    <path id="Path_779" data-name="Path 779" d="M1241.21,838.726a24.949,24.949,0,0,0,16.974-7.006H1224.24A24.938,24.938,0,0,0,1241.21,838.726Z" transform="translate(-633.731 -402.004)" fill="#30242a"/>
    <path id="Path_780" data-name="Path 780" d="M1211.558,937.878a12.606,12.606,0,0,1,23.816,0,12.606,12.606,0,0,1,15.233-8.02,31.379,31.379,0,0,0-4.019-16.185,12.617,12.617,0,0,0-11.214,8.441,12.609,12.609,0,0,0-23.816,0,12.61,12.61,0,0,0-11.047-8.431,31.425,31.425,0,0,0-4,16.127,12.613,12.613,0,0,1,15.062,8.067Z" transform="translate(-616.074 -454.162)" fill="#3ec1f3"/>
    <path id="Path_781" data-name="Path 781" d="M1277.86,795.431c.69-4.237,3.841-21.047,11.759-30.161" transform="translate(-667.867 -359.701)" fill="none" stroke="#30242a" stroke-linecap="round" stroke-miterlimit="10" stroke-width="4"/>
    <path id="Path_782" data-name="Path 782" d="M1258.6,774.04c-.051-4.811-.545-28.453-5.247-42.56" transform="translate(-652.264 -338.189)" fill="none" stroke="#30242a" stroke-linecap="round" stroke-miterlimit="10" stroke-width="4"/>
    <ellipse id="Ellipse_1246" data-name="Ellipse 1246" cx="13.736" cy="3.089" rx="13.736" ry="3.089" transform="translate(612.103 419.164) rotate(-23.75)" fill="#30242a"/>
    <ellipse id="Ellipse_1247" data-name="Ellipse 1247" cx="7.598" cy="2.653" rx="7.598" ry="2.653" transform="translate(618.374 379.288) rotate(-53.51)" fill="#30242a"/>
    <ellipse id="Ellipse_1248" data-name="Ellipse 1248" cx="16.574" cy="2.929" rx="16.574" ry="2.929" transform="translate(572.32 418.413) rotate(-8.6)" fill="#30242a"/>
    <path id="Path_783" data-name="Path 783" d="M1195.52,744.71v.026a6.127,6.127,0,0,1-5,11.134v.025c7.587,3.409,14.862,3.667,16.25.578S1203.108,748.119,1195.52,744.71Z" transform="translate(-612.265 -346.612)" fill="#ff7235"/>
    <path id="Path_784" data-name="Path 784" d="M1230.119,674.4c-1.617-.418-3.717,2.024-5.251,5.814-1.846-4.59-4.524-7.66-6.327-7.064s-2.129,4.655-.879,9.448c-3.481-2.122-6.625-2.834-7.671-1.537-1.337,1.657,1.239,5.952,5.756,9.6a25.713,25.713,0,0,0,4.132,2.751,6.123,6.123,0,0,1,9.713-3.325,26.1,26.1,0,0,0,1.617-4.528C1232.663,679.924,1232.179,674.935,1230.119,674.4Z" transform="translate(-624.436 -301.009)" fill="#ff7235"/>
    <path id="Path_785" data-name="Path 785" d="M1325.107,723.1c-.5-1.592-3.681-2.082-7.7-1.388,2.907-4,4.113-7.889,2.653-9.106s-5.088.658-8.481,4.248c-.04-4.077-1.09-7.119-2.751-7.322-2.111-.258-4.4,4.2-5.087,9.96a25.754,25.754,0,0,0-.149,4.96,6.123,6.123,0,0,1,7.958,6.486,26.016,26.016,0,0,0,4.7-1.021C1321.767,728.184,1325.743,725.131,1325.107,723.1Z" transform="translate(-684.211 -324.21)" fill="#ff7235"/>
    <path id="Path_786" data-name="Path 786" d="M1309.429,751.223a6.12,6.12,0,0,0-5.789-1.127c.2,2.74.89,4.837,1.933,5.618.97.9,3.223,1.2,6.025.869A6.116,6.116,0,0,0,1309.429,751.223Z" transform="translate(-684.279 -349.855)" fill="#30242a"/>
    <path id="Path_787" data-name="Path 787" d="M1241.845,716.567a6.112,6.112,0,0,0-4.015,4.321c2.427,1.283,4.575,1.817,5.789,1.33,1.279-.363,2.722-2.1,3.925-4.655a6.116,6.116,0,0,0-5.7-1Z" transform="translate(-642.383 -328.498)" fill="#30242a"/>
    <path id="Path_788" data-name="Path 788" d="M1196.177,755.022a2.976,2.976,0,0,1,2.442-5.4,6.123,6.123,0,0,0-3.129-4.858l-5,11.134A6.112,6.112,0,0,0,1196.177,755.022Z" transform="translate(-612.246 -346.644)" fill="#f5ebdd"/>
    <path id="Path_789" data-name="Path 789" d="M1202.172,759.424a2.976,2.976,0,0,0,1.275,3.823,6.112,6.112,0,0,0,2.442-5.4,2.976,2.976,0,0,0-3.717,1.581Z" transform="translate(-619.517 -354.861)" fill="#4856df"/>
    <circle id="Ellipse_1249" data-name="Ellipse 1249" cx="5.778" cy="5.778" r="5.778" transform="translate(454.334 212.213)" fill="#fff"/>
    <circle id="Ellipse_1250" data-name="Ellipse 1250" cx="5.778" cy="5.778" r="5.778" transform="translate(471.845 212.213)" fill="#fff"/>
    <circle id="Ellipse_1251" data-name="Ellipse 1251" cx="5.778" cy="5.778" r="5.778" transform="translate(489.357 212.213)" fill="#fff"/>
    <path id="Path_790" data-name="Path 790" d="M959.735,201.7a10.658,10.658,0,0,1,10.658,10.658V343.409a10.658,10.658,0,0,1-10.658,10.654H828.692a10.658,10.658,0,0,1-10.658-10.654V212.362A10.658,10.658,0,0,1,828.692,201.7H959.735m0-1.454H828.692a12.126,12.126,0,0,0-12.112,12.112V343.409a12.122,12.122,0,0,0,12.112,12.108H959.735a12.123,12.123,0,0,0,12.112-12.108V212.362a12.126,12.126,0,0,0-12.112-12.112Z" transform="translate(-374.209)" fill="#f5ebdd"/>
    <path id="Path_791" data-name="Path 791" d="M799.7,430.76s-7.7,0-8.754,3.151a5.851,5.851,0,0,0,1.4,5.607s-4.2,2.1-1.4,5.952c0,0-2.1,3.5,1.4,5.6,0,0-2.1,2.453,1.4,4.906s8.405,2.8,9.448,1.752c1.239-1.239.988-3.052-1.432-5.029,0,0,4.586.476,5.284-1.977s-1.748-3.852-1.748-3.852,3.151,0,3.151-2.8a3.739,3.739,0,0,0-2.8-3.5,2.794,2.794,0,0,0,1.05-2.8c-.516-2.06-3.866-2.983-5.607-3.329a12.1,12.1,0,0,0-1.4-.174Z" transform="translate(-357.274 -146.746)" fill="#a15842"/>
    <path id="Path_792" data-name="Path 792" d="M797.59,487.47a50.575,50.575,0,0,0,10.687,2.01" transform="translate(-362.12 -182.849)" fill="none" stroke="#30242a" stroke-linecap="round" stroke-miterlimit="10" stroke-width="4"/>
    <path id="Path_793" data-name="Path 793" d="M794,472a55.837,55.837,0,0,0,15.509,1.6" transform="translate(-359.834 -173)" fill="none" stroke="#30242a" stroke-linecap="round" stroke-miterlimit="10" stroke-width="4"/>
    <path id="Path_794" data-name="Path 794" d="M797.05,456a43,43,0,0,0,14.688.938" transform="translate(-361.776 -162.814)" fill="none" stroke="#30242a" stroke-linecap="round" stroke-miterlimit="10" stroke-width="4"/>
    <path id="Path_795" data-name="Path 795" d="M1008.261,592.431s-28.369,7.359-38.177,14.713A58.762,58.762,0,0,0,958.529,619.4c-1.744,2.809-9.106,13.311-5.6,13.66s7.355-5.952,7.355-5.952-2.108,7.7-1.744,10.157,3.852,1.751,3.852,1.751c2.8,2.8,5.255-.7,5.255-.7,4.9,3.151,10.175-13.66,10.175-13.66a33.068,33.068,0,0,0,7.882-5.429s31.346-.174,41.153-8.932c6.963-6.214,8.681-18.471,8.678-30.135h-27.254Z" transform="translate(-460.414 -241.857)" fill="#a15842"/>
    <line id="Line_253" data-name="Line 253" y1="1.599" x2="6.396" transform="translate(548.109 348.126)" fill="none" stroke="#30242a" stroke-linecap="round" stroke-miterlimit="10" stroke-width="4"/>
    <path id="Path_796" data-name="Path 796" d="M971,695.871a79.721,79.721,0,0,1,4.361-12.061" transform="translate(-472.515 -307.842)" fill="none" stroke="#30242a" stroke-linecap="round" stroke-miterlimit="10" stroke-width="4"/>
    <path id="Path_797" data-name="Path 797" d="M985.989,689.6c-3.154,6.8-5.087,14.993-5.989,19.041" transform="translate(-478.245 -311.528)" fill="none" stroke="#30242a" stroke-linecap="round" stroke-miterlimit="10" stroke-width="4"/>
    <path id="Path_798" data-name="Path 798" d="M1001.087,696.34c-2.06,4.724-3.932,11.832-5.087,16.229" transform="translate(-488.431 -315.819)" fill="none" stroke="#30242a" stroke-linecap="round" stroke-miterlimit="10" stroke-width="4"/>
    <path id="Path_799" data-name="Path 799" d="M919.208,647.67c-8.536,3.038-18.064,6.686-25.273,10.142-12.922,6.178-14.655,18.718-13.322,39.129" transform="translate(-414.735 -284.834)" fill="none" stroke="#000" stroke-linecap="round" stroke-linejoin="round" stroke-width="4"/>
    <path id="Path_800" data-name="Path 800" d="M299.194,924.29a187.432,187.432,0,0,0-24.539,6.643l-13.787-6.109.029-.3L228.77,953.7l.7.839a9.346,9.346,0,0,0,7.177,3.361h64.483Z" transform="translate(0 -460.935)" fill="#eaa58b"/>
    <path id="Path_801" data-name="Path 801" d="M334.493,870.161a184.023,184.023,0,0,1,24.539-6.643l1.937,33.609h46.023a26.024,26.024,0,0,0,25.666-20.946c1.544-8.158-.868-16.894-9.539-22.835-13.947-9.557-43.781-22.065-51.484-24.518l-42.382,9.811c-8.056,8.758-6.3,23.115-6.3,23.115Z" transform="translate(-59.853 -400.164)" fill="#a15842"/>
    <path id="Path_802" data-name="Path 802" d="M422.86,920.443a138.813,138.813,0,0,1,35.07-2.744" transform="translate(-123.561 -456.634)" fill="none" stroke="#30242a" stroke-linecap="round" stroke-miterlimit="10" stroke-width="4"/>
    <path id="Path_803" data-name="Path 803" d="M459.21,827.83c6.741,2.148,30.426,11.992,45.583,20.822" transform="translate(-146.702 -399.527)" fill="none" stroke="#30242a" stroke-linecap="round" stroke-miterlimit="10" stroke-width="4"/>
    <path id="Path_804" data-name="Path 804" d="M274.064,925.63,238.71,957.713a9.307,9.307,0,0,0,4.277,1.039h25.735l12.246-26.967A26.188,26.188,0,0,0,274.064,925.63Z" transform="translate(-6.328 -461.788)" fill="#ffbe21"/>
    <path id="Path_805" data-name="Path 805" d="M263.1,919.43,228.77,950.6l.7.839a9.306,9.306,0,0,0,2.907,2.322l35.357-32.083a23.343,23.343,0,0,0-4.64-2.253Z" transform="translate(0 -457.841)" fill="#ff7235"/>
    <line id="Line_254" data-name="Line 254" y2="6.207" transform="translate(255.213 490.838)" fill="none" stroke="#30242a" stroke-linecap="round" stroke-miterlimit="10" stroke-width="4"/>
    <line id="Line_255" data-name="Line 255" y2="6.207" transform="translate(249.61 490.838)" fill="none" stroke="#30242a" stroke-linecap="round" stroke-miterlimit="10" stroke-width="4"/>
    <path id="Path_806" data-name="Path 806" d="M392.05,627.187c1.09-.1,3.365-.287,5.64-.287" transform="translate(-103.947 -271.612)" fill="none" stroke="#4756df" stroke-linecap="round" stroke-miterlimit="10" stroke-width="4"/>
    <path id="Path_807" data-name="Path 807" d="M659.594,592.156s6.832-2.264,8.721.585a6.076,6.076,0,0,1,.138,5.959s4.757.941,3.023,5.542c0,0,3.049,2.907.142,5.96,0,0,2.762,1.864-.055,5.262s-7.595,5.087-8.928,4.332c-1.57-.894-1.817-2.765.047-5.4,0,0-4.43,1.726-5.8-.52s.687-4.313.687-4.313-3.136.865-3.9-1.926a3.854,3.854,0,0,1,1.817-4.252,2.892,2.892,0,0,1-1.817-2.5c-.069-2.678,4.63-5.011,5.887-5.578Z" transform="translate(-270.408 -248.95)" fill="#eaa58b"/>
    <path id="Path_808" data-name="Path 808" d="M656,617c2.7-.472,9.546-1.933,14.081-5.087" transform="translate(-271.981 -262.069)" fill="none" stroke="#a15842" stroke-linecap="round" stroke-miterlimit="10" stroke-width="4"/>
    <path id="Path_809" data-name="Path 809" d="M659,633.785A38.519,38.519,0,0,0,674.989,628" transform="translate(-273.891 -272.312)" fill="none" stroke="#a15842" stroke-linecap="round" stroke-miterlimit="10" stroke-width="4"/>
    <path id="Path_810" data-name="Path 810" d="M673,649.747a66.084,66.084,0,0,0,11.141-5.047" transform="translate(-282.804 -282.944)" fill="none" stroke="#a15842" stroke-linecap="round" stroke-miterlimit="10" stroke-width="4"/>
    <path id="Path_811" data-name="Path 811" d="M318.058,684.8c-6.341.774-13.416,1.919-21.382,3.343l11.207-30.121,4.9-28.707s-16.109,1.752-23.464,10.175c-6.784,7.751-28.021,43.781-19.623,62.695s33.631,12.242,39.576,10.491c3.245-.956,8.162-3.158,13.209-4.8Z" transform="translate(-24.824 -273.146)" fill="#3ec1f3"/>
    <path id="Path_812" data-name="Path 812" d="M422.6,801.213c7.707,1.05,16.461,4.9,17.864,0,0,0,4.724-.12,3.234-4.611,0,0,2.369-.294,2.718-2.046.7-3.5-7.7-6.654-7.7-6.654s6.654,1.05,8.056-.363c1.784-1.788.047-4.633-10.822-7.268-7.893-1.911-17.442-1.8-29.8-.283l4.437,23.064C414.817,801.708,419.1,800.734,422.6,801.213Z" transform="translate(-112.923 -368.343)" fill="#eaa58b"/>
    <path id="Path_813" data-name="Path 813" d="M476.053,796.858A95.326,95.326,0,0,0,460.1,792.21" transform="translate(-147.268 -376.851)" fill="none" stroke="#a15842" stroke-linecap="round" stroke-miterlimit="10" stroke-width="4"/>
    <path id="Path_814" data-name="Path 814" d="M476.038,815.087c-4.869-2.18-14.274-6.221-19.318-6.977" transform="translate(-145.116 -386.973)" fill="none" stroke="#a15842" stroke-linecap="round" stroke-miterlimit="10" stroke-width="4"/>
    <path id="Path_815" data-name="Path 815" d="M470.422,830.024c-3.754-1.9-11.265-5.48-16.592-6.494" transform="translate(-143.277 -396.79)" fill="none" stroke="#a15842" stroke-linecap="round" stroke-miterlimit="10" stroke-width="4"/>
    <path id="Path_816" data-name="Path 816" d="M352.508,783.44c-3.423.443-14.372,1.955-30.728,5.113" transform="translate(-59.212 -371.268)" fill="none" stroke="#4756df" stroke-linecap="round" stroke-miterlimit="10" stroke-width="4"/>
    <circle id="Ellipse_1252" data-name="Ellipse 1252" cx="15.586" cy="15.586" r="15.586" transform="translate(554.504 312.383)" fill="#fff"/>
    <rect id="Rectangle_3518" data-name="Rectangle 3518" width="8.758" height="14.008" rx="4.379" transform="translate(565.711 318.862)" fill="#4856df"/>
    <line id="Line_256" data-name="Line 256" y2="4.906" transform="translate(570.09 331.472)" fill="none" stroke="#4856df" stroke-linecap="round" stroke-miterlimit="10" stroke-width="4"/>
    <line id="Line_257" data-name="Line 257" x2="5.022" transform="translate(567.579 336.377)" fill="none" stroke="#4856df" stroke-linecap="round" stroke-miterlimit="10" stroke-width="4"/>
  </g>
</svg>
